<?xml version="1.0" encoding="utf-8"?>
<!-- Generator: Adobe Illustrator 21.1.0, SVG Export Plug-In . SVG Version: 6.00 Build 0)  -->
<svg version="1.1" id="Слой_1" xmlns="http://www.w3.org/2000/svg" xmlns:xlink="http://www.w3.org/1999/xlink" x="0px" y="0px"
	 viewBox="0 0 24 24" style="enable-background:new 0 0 24 24;" xml:space="preserve">
<style type="text/css">
	.st0{fill:#DF0026;}
	.st1{fill:#1E3F5E;}
</style>
<path id="Rectangle_55" class="st0" d="M9.3,9.7h8.3c0.7,0,1.3,0.6,1.3,1.3c0,0,0,0,0,0l0,0c0,1.5-1.2,2.7-2.7,2.7h-5.7
	C9.1,13.7,8,12.5,8,11c0,0,0,0,0,0l0,0C8,10.2,8.6,9.7,9.3,9.7C9.3,9.7,9.3,9.7,9.3,9.7z"/>
<path class="st1" d="M16.8,17.9c-1.3,0-2.4,1.1-2.4,2.4s1.1,2.4,2.4,2.4s2.4-1.1,2.4-2.4S18.1,17.9,16.8,17.9z M16,21.1
	c-0.2-0.2-0.3-0.5-0.3-0.8c0-0.3,0.1-0.6,0.3-0.8c0.2-0.2,0.5-0.3,0.8-0.3c0,0,0,0,0,0c0.3,0,0.6,0.1,0.8,0.3
	c0.2,0.2,0.3,0.5,0.3,0.8c0,0.3-0.1,0.6-0.3,0.8c-0.2,0.2-0.5,0.3-0.8,0.3h0c0,0,0,0,0,0C16.5,21.4,16.2,21.3,16,21.1z M16.8,21.6
	L16.8,21.6L16.8,21.6L16.8,21.6z"/>
<path class="st1" d="M23.4,5.5c-0.1-0.2-0.3-0.2-0.5-0.2c0,0,0,0,0,0H4.8L4.5,4C4.2,2.8,3.2,2,1.9,2c0,0,0,0,0,0H0.7c0,0,0,0,0,0
	C0.3,2,0,2.3,0,2.7C0,3,0.3,3.3,0.7,3.3h1.2c0,0,0,0,0,0c0.6,0,1.2,0.4,1.3,1l2.5,10.2c0.3,1.2,1.4,2,2.6,2c0,0,0,0,0,0H19
	c0,0,0,0,0,0c1.2,0,2.3-0.9,2.6-2.1L23.5,6C23.6,5.8,23.5,5.6,23.4,5.5z M22,6.6l-1.7,7.6c-0.1,0.6-0.7,1-1.3,1c0,0,0,0,0,0H8.3
	c0,0,0,0,0,0c-0.6,0-1.2-0.4-1.3-1L5.1,6.6H22z"/>
<path class="st1" d="M9.8,17.9c-1.3,0-2.4,1.1-2.4,2.4s1.1,2.4,2.4,2.4s2.4-1.1,2.4-2.4S11.2,17.9,9.8,17.9z M9,19.5
	c0.2-0.2,0.5-0.3,0.8-0.3c0,0,0,0,0,0c0.3,0,0.6,0.1,0.8,0.3c0.2,0.2,0.3,0.5,0.3,0.8c0,0.6-0.5,1.1-1.1,1.1c0,0,0,0,0,0
	c-0.3,0-0.6-0.1-0.8-0.3c-0.2-0.2-0.3-0.5-0.3-0.8C8.7,20,8.8,19.8,9,19.5z"/>
</svg>
