<svg xmlns="http://www.w3.org/2000/svg" viewBox="0 0 24 24"><defs><style>.cls-1{fill:#df0026;}.cls-2{fill:#1e3f5e;}</style></defs><title>ic_favorite</title><g id="Слой_11" data-name="Слой 11"><path id="Path_185-2" data-name="Path 185-2" class="cls-1" d="M16.94,9.19A2.86,2.86,0,0,0,12,8.38a2.85,2.85,0,0,0-2.25-1.1h0A2.88,2.88,0,0,0,7.4,8.5a2.74,2.74,0,0,0-.48,1.27A3.45,3.45,0,0,0,7,11.05a6.78,6.78,0,0,0,1.15,2.23,13.27,13.27,0,0,0,3.62,3.17l.19.11.19-.11a12.08,12.08,0,0,0,4.14-3.93,4.93,4.93,0,0,0,.77-2.23A2.84,2.84,0,0,0,16.94,9.19Z"/><path id="Path_185" data-name="Path 185" class="cls-2" d="M23.63,5.5A6.73,6.73,0,0,0,12,3.58,6.72,6.72,0,0,0,6.69,1h0A6.77,6.77,0,0,0,1.19,3.86,6.43,6.43,0,0,0,0,6.85a8.13,8.13,0,0,0,.25,3A16,16,0,0,0,3,15.12a31.22,31.22,0,0,0,8.53,7.46l.44.28.44-.28c4.56-2.87,7.75-5.89,9.73-9.25A11.59,11.59,0,0,0,24,8.06,6.67,6.67,0,0,0,23.63,5.5ZM12,20.88a29.05,29.05,0,0,1-7.64-6.77A14.29,14.29,0,0,1,1.91,9.44,6.48,6.48,0,0,1,1.7,7a4.78,4.78,0,0,1,.85-2.22,5.06,5.06,0,0,1,8.69.68L12,7l.75-1.53A5,5,0,0,1,22.32,8a10,10,0,0,1-1.59,4.5A26.32,26.32,0,0,1,12,20.88Z"/></g></svg>