<svg width="1202" height="985" xmlns="http://www.w3.org/2000/svg">
 <style type="text/css">.st0{fill:#FFFFFF;}
	.st1{fill-rule:evenodd;clip-rule:evenodd;fill:#28357A;}
	.st2{fill-rule:evenodd;clip-rule:evenodd;fill:#df0026;}</style>

 <g>
  <title>background</title>
  <rect fill="none" id="canvas_background" height="987" width="1204" y="-1" x="-1"/>
 </g>
 <g>
  <title>Layer 1</title>
  <path id="svg_2" d="m27.4,881.4l1150.7,0c13.1,0 23.8,10.8 23.8,23.9l0,56.1c0,13.1 -10.7,23.9 -23.8,23.9l-1150.7,0c-13.1,0 -23.8,-10.8 -23.8,-23.9l0,-56.1c0.1,-13.2 10.7,-23.9 23.8,-23.9m61.9,54.3l0,-23.6l-23.4,0l0,44.2l3,0c5.6,0 10.2,-1.6 13.9,-4.9c4.4,-3.7 6.5,-8.9 6.5,-15.7m-27.2,20.7l0,-44.3l-23.4,0l0,23.6c0,6.5 2.1,11.6 6.5,15.5c3.8,3.4 8.5,5.1 13.9,5.1l3,0l0,0.1zm82.6,0l0,-23.6c0,-6.7 -2.2,-12 -6.4,-15.7c-3.7,-3.2 -8.4,-4.9 -13.9,-4.9l-3,0l0,44.2l23.3,0zm-27.2,0l0,-44.3l-3,0c-5.4,0 -10.1,1.7 -13.9,5.1c-4.3,3.8 -6.5,9 -6.5,15.5l0,23.6l23.4,0l0,0.1zm32,-44.3l0,44.2l23.4,0l0,-28.8l10.5,0l0,-3.7l-10.5,0l0,-11.7l-23.4,0zm57.8,25.3l0,-25.3l-3,0c-5.5,0 -10.2,1.6 -13.9,4.9c-4.3,3.7 -6.5,9 -6.5,15.7l0,4.7l23.4,0zm54.3,19l0,-23.6c0,-6.5 -2.2,-11.6 -6.4,-15.5c-3.8,-3.4 -8.5,-5.1 -13.9,-5.1l-3,0l0,44.2l23.3,0zm-50.6,-11.7l23.4,0l0,-32.6l-23.4,0l0,32.6zm105.7,-9l0,-4.7l-23.4,0l0,25.3l3,0c5.6,0 10.2,-1.6 13.9,-4.9c4.4,-3.7 6.5,-8.9 6.5,-15.7m2.1,-8.1l0,-3.7l-29.3,0l0,-11.8l-23.4,0l0,23.6c0,6.5 2.1,11.6 6.4,15.5c3.8,3.4 8.5,5.1 13.9,5.1l3,0l0,-28.8l29.4,0l0,0.1zm53.3,9.8l0,-4.7c0,-6.7 -2.2,-12 -6.5,-15.7c-3.7,-3.2 -8.4,-4.9 -13.9,-4.9l-3,0l0,25.3l23.4,0zm-50.6,19l23.4,0l0,-44.3l-3,0c-5.5,0 -10.1,1.7 -13.9,5.1c-4.3,3.8 -6.5,9 -6.5,15.5l0,23.7zm78.8,0l0,-44.3l-23.4,0l0,23.6c0,6.5 2.1,11.6 6.4,15.5c3.8,3.4 8.5,5.1 13.9,5.1l3.1,0l0,0.1zm27.2,-20.7l0,-19.9l5.6,0l0,-3.7l-29,0l0,44.2l3,0c5.6,0 10.2,-1.6 13.9,-4.9c4.3,-3.7 6.5,-8.9 6.5,-15.7m31.1,20.7l0,-44.3l-23.4,0l0,23.6c0,6.5 2.2,11.6 6.5,15.5c3.8,3.4 8.5,5.1 13.9,5.1l3,0l0,0.1zm23.4,-0.3l-19.6,-16.9l0,17.2l3,0c3.5,0 6.2,-0.5 8.3,-1.6l5.3,4.5l3,-3.2zm-19.6,-21.7l18.6,15.4c1.5,-1.5 2.6,-3.5 3.5,-6.1c0.8,-2.5 1.3,-5.2 1.3,-7.9l0,-23.7l-23.4,0l0,22.3zm78.7,3l0,-4.7c0,-6.7 -2.2,-12 -6.5,-15.7c-3.7,-3.2 -8.4,-4.9 -13.9,-4.9l-3,0l0,25.3l23.4,0zm-50.6,19l23.4,0l0,-44.3l-3,0c-5.5,0 -10.1,1.7 -13.9,5.1c-4.3,3.8 -6.4,9 -6.4,15.5l0,23.7l-0.1,0zm55.7,-44.3l0,16.4c0,6.7 2.2,12 6.5,15.7c3.7,3.3 8.4,4.9 13.9,4.9l3,0l0,-37l-23.4,0zm50.6,11.8l-23.4,0l0,32.5l23.4,0l0,-32.5zm55.1,11.8l0,-4.7l-23.4,0l0,25.3l3,0c5.6,0 10.2,-1.6 13.9,-4.9c4.3,-3.7 6.5,-8.9 6.5,-15.7m2.1,-8.1l0,-3.7l-29.3,0l0,-11.8l-23.4,0l0,23.6c0,6.5 2.1,11.6 6.4,15.5c3.8,3.4 8.5,5.1 13.9,5.1l3,0l0,-28.8l29.4,0l0,0.1zm47.1,3.9c0,-6.9 -2.5,-12.2 -7.4,-15.8c-2.4,-1.8 -5.2,-3 -8.2,-3.7c-2.4,-0.5 -5.6,-0.8 -9.4,-0.8l25,20.3zm0.4,11.6c0,-4.1 -2.1,-7.8 -6.3,-11.2l-24.4,-20c-4.4,0.4 -7.9,1.8 -10.6,4.3c-2.7,2.5 -4.1,5.7 -4,9.5c0,4.6 1.6,8.2 4.8,10.7l25.7,20.4c4.5,-0.4 8,-1.8 10.7,-4.2c2.8,-2.4 4.2,-5.6 4.1,-9.5m-20.4,14.1l-24.6,-19.3c0,3.3 0.4,6 1.2,8.1c1,2.7 2.9,5.2 5.7,7.5c1.9,1.5 3.9,2.6 6,3.2c1.6,0.4 3.7,0.6 6.2,0.6c0.5,0 1.4,0 2.6,0c1.2,-0.1 2.2,-0.1 2.9,-0.1m76.5,-21.5l0,-11.9l-23.4,0l0,32.5l3,0c5.5,0 10.1,-1.7 13.9,-5.1c4.3,-3.8 6.5,-9 6.5,-15.5m-27.2,20.7l0,-44.3l-28,0l0,3.7l4.6,0l0,19.9c0,6.8 2.1,12 6.4,15.7c3.7,3.2 8.4,4.9 13.9,4.9l3.1,0l0,0.1zm82.4,-20.7l0,-4.7l-23.4,0l0,25.3l3,0c5.6,0 10.2,-1.6 13.9,-4.9c4.4,-3.7 6.5,-8.9 6.5,-15.7m2.2,-8.1l0,-3.7l-29.3,0l0,-11.8l-23.4,0l0,23.6c0,6.5 2.1,11.6 6.4,15.5c3.8,3.4 8.5,5.1 13.9,5.1l3,0l0,-28.8l29.4,0l0,0.1zm53.2,9.8l0,-4.7c0,-6.7 -2.2,-12 -6.4,-15.7c-3.7,-3.2 -8.4,-4.9 -13.9,-4.9l-3,0l0,25.3l23.3,0zm-50.6,19l23.4,0l0,-44.3l-3,0c-5.5,0 -10.1,1.7 -13.9,5.1c-4.3,3.8 -6.4,9 -6.4,15.5l0,23.7l-0.1,0zm106,-7.2l0,-4.7c0,-6.8 -2.2,-12 -6.5,-15.7c-3.7,-3.3 -8.4,-4.9 -13.9,-4.9l-3,0l0,25.3l23.4,0zm-50.6,7.2l23.4,0l0,-44.3l-23.4,0l0,44.3zm92.4,-25.9l-8.7,0l0,3.6l27.5,0l0,22.2l7.3,0c4.8,0 8.8,-1.5 11.7,-4.5c2.7,-2.7 4,-5.8 3.9,-9.3c-0.1,-6.2 -3.2,-10 -9.5,-11.7l0,-0.1c3.3,-1.1 5,-3.9 5,-8.3c0,-2.7 -1.3,-5.1 -3.9,-7.2c-2.7,-2.1 -5.8,-3.2 -9.5,-3.2l-5.2,0l0,18.3l-3.8,0l0,-18.2l-6.1,0c-3.7,0 -6.8,1 -9.4,3.1c-2.6,2.1 -3.9,4.5 -3.9,7.2c0,2 0.4,3.7 1.2,5.2c1,1.6 2.1,2.5 3.4,2.9m15.1,25.9l0,-19l-23.5,0l0,0.6c0,6.4 2.1,11.2 6.4,14.4c3.6,2.7 8.2,4 13.9,4l3.2,0zm54.5,0l0,-44.3l-23.4,0l0,23.6c0,6.5 2.2,11.6 6.5,15.5c3.8,3.4 8.5,5.1 13.9,5.1l3,0l0,0.1zm23.4,-0.3l-19.7,-16.9l0,17.2l3,0c3.5,0 6.2,-0.5 8.3,-1.6l5.3,4.5l3.1,-3.2zm-19.6,-21.7l18.6,15.4c1.5,-1.5 2.6,-3.5 3.5,-6.1c0.8,-2.5 1.3,-5.2 1.3,-7.9l0,-23.7l-23.4,0l0,22.3zm79.5,1.3l0,-11.9l-23.4,0l0,32.5l3,0c5.5,0 10.1,-1.7 13.9,-5.1c4.3,-3.8 6.5,-9 6.5,-15.5m-27.2,20.7l0,-44.3l-28,0l0,3.7l4.6,0l0,19.9c0,6.8 2.1,12 6.4,15.7c3.7,3.2 8.4,4.9 13.9,4.9l3.1,0l0,0.1zm40.2,-25.9l-8.7,0l0,3.6l27.5,0l0,22.2l7.3,0c4.8,0 8.8,-1.5 11.7,-4.5c2.7,-2.7 4,-5.8 3.9,-9.3c-0.1,-6.2 -3.2,-10 -9.5,-11.7l0,-0.1c3.3,-1.1 5,-3.9 5,-8.3c0,-2.7 -1.3,-5.1 -3.9,-7.2c-2.7,-2.1 -5.8,-3.2 -9.5,-3.2l-5.2,0l0,18.3l-3.8,0l0,-18.2l-6.1,0c-3.7,0 -6.8,1 -9.4,3.1c-2.6,2.1 -3.9,4.5 -3.9,7.2c0,2 0.4,3.7 1.2,5.2c1,1.6 2.1,2.5 3.4,2.9m15,25.9l0,-19l-23.5,0l0,0.6c0,6.4 2.1,11.2 6.4,14.4c3.6,2.7 8.2,4 14,4l3.1,0z" class="st1"/>
  <path id="svg_3" d="m469.2,1c12.9,0 22.6,0.4 29.1,1.2c12,1.5 21.9,7 29.5,16.4c8.6,10.7 12.9,25.1 12.9,43.3c0,16.6 -4.3,30.1 -12.9,40.3c-7.2,8.6 -16,13.7 -26.5,15.3c-7,1 -17.9,1.6 -32.7,1.6l-95.8,0l0,17.3l-40.9,0l0,-68.9l163.4,0c7.2,0 10.9,-2.6 10.9,-7.7c0,-4.7 -3.6,-7.1 -10.7,-7.1l-85.9,0l0,-51.6l59.6,0l0,-0.1zm34.5,132.5l-7.8,17.4c-5.8,-0.6 -14.9,-0.9 -27.4,-0.9l-136.8,0l0,51.6l147.5,0c1.7,-6.6 6.4,-9.9 14.1,-9.9c3.7,0 6.7,1.3 9.1,3.8c2.4,2.6 3.5,5.4 3.5,8.7c0,8.2 -4,12.3 -12,12.3l-162.2,0l0,51.5l137.5,0c12.9,0 22.6,-0.4 29.1,-1.2c12,-1.5 21.9,-7 29.5,-16.4c8.6,-10.7 12.9,-25.1 12.9,-43.3c0,-14.2 -3.5,-26.3 -10.4,-36.1l9.9,-18.7l-36.5,-18.8zm36.9,144.2l0,68.6l-35.2,0.1c0.9,2.7 1.3,5.3 1.3,8.1c0,17.4 -4.4,31.2 -13.4,41.4c-7.8,8.9 -17.9,14.1 -30.2,15.7c-6.6,0.8 -16.5,1.2 -29.7,1.2l-64,0l0,-51.6l90.6,0c7.3,0 11,-2.4 11,-7.1c0,-5.1 -3.7,-7.7 -11.1,-7.7l-128.2,0l0,-51.6l167.1,0.1l0,-17.3l41.8,0l0,0.1zm-131.2,151.9l0,68.8l85.8,0c7.2,0 10.7,-2.4 10.7,-7.1c0,-5.2 -3.6,-7.7 -10.9,-7.7l-62.3,0l0,-51.6l35.6,0c15.5,0 26.4,0.5 32.7,1.5c10.5,1.6 19.4,6.7 26.5,15.3c8.6,10.2 12.9,23.6 12.9,40.3c0,18.1 -4.3,32.6 -12.9,43.3c-7.6,9.4 -17.4,14.8 -29.5,16.4c-6.5,0.8 -16.2,1.2 -29.1,1.2l-137.2,0l0,-51.6l36.8,0l0,-68.8l40.9,0zm52.8,139.5l0,51.6l-85.9,0c-7.2,0 -10.7,2.3 -10.7,7.1c0,5.1 3.6,7.7 10.9,7.7l163.4,0l0,51.6l-136.8,0c-15.5,0 -26.4,-0.5 -32.8,-1.5c-10.5,-1.6 -19.4,-6.7 -26.5,-15.3c-8.6,-10.2 -12.9,-23.6 -12.9,-40.3c0,-18.1 4.3,-32.5 12.9,-43.2c7.6,-9.4 17.4,-14.9 29.5,-16.4c6.5,-0.8 16.2,-1.3 29,-1.3l59.9,0zm-52.8,134.9l0,68.8l85.8,0c7.2,0 10.7,-2.4 10.7,-7.1c0,-5.1 -3.6,-7.7 -10.9,-7.7l-62.3,0l0,-51.6l35.6,0c15.5,0 26.4,0.5 32.7,1.5c10.5,1.6 19.4,6.7 26.5,15.3c8.6,10.2 12.9,23.6 12.9,40.3c0,18.1 -4.3,32.6 -12.9,43.3c-7.6,9.4 -17.4,14.8 -29.5,16.4c-6.5,0.8 -16.2,1.2 -29.1,1.2l-137.2,0l0,-51.6l36.8,0l0,-68.8l40.9,0z" class="st1"/>
  <path id="svg_4" d="m662.1,820.5l0,-740.2c0,-2.1 -1.7,-3.9 -3.9,-3.9l-77.1,0c-2.1,0 -3.9,-1.7 -3.9,-3.9l0,-67.7c0,-2.1 1.7,-3.9 3.9,-3.9l274.1,0c2.1,0 3.9,1.7 3.9,3.9l0,67.7c0,2.1 -1.7,3.9 -3.9,3.9l-77.1,0c-2.1,0 -3.9,1.7 -3.9,3.9l0,740.2c0,2.1 -1.7,3.9 -3.9,3.9l-104.4,0c-2.1,0 -3.8,-1.8 -3.8,-3.9" class="st2"/>
  <path id="svg_5" d="m168.9,472.5l104.4,0c2.1,0 3.9,1.7 3.9,3.9l0,227.7l0,1.4l0,1.4c0,6.4 -0.2,13.9 -0.5,22.6c-0.3,8.7 -1.4,17.5 -3.3,26.5c-3.8,16.7 -12.6,32.1 -26.4,46.2c-13.8,14.1 -37.4,21.2 -70.7,21.2l-76,1c-0.2,0 -0.5,0 -0.7,-0.1c-3,-0.6 -6.2,-0.9 -9.6,-0.9c-3.5,0 -7.1,-0.3 -10.8,-1c-19.5,-1.3 -37.5,-8.8 -54.2,-22.6c-16.7,-13.8 -25,-46 -25,-96.7l0,-582.8l0,-13.5c0,-4.4 0.3,-9.2 0.9,-14.3c0,-0.1 0,-0.2 0,-0.2c0.6,-22.4 6.9,-43.2 18.8,-62.4c11.9,-19.2 38.6,-28.9 80.1,-28.9l76.4,0c35.2,0 59.5,7.2 73.1,21.6c13.5,14.4 21.8,30.3 25,47.6c1.3,7.7 2,15.2 2.4,22.6c0.3,7.4 0.5,14.3 0.5,20.7l0,3.4l0,2.4l0,159.4c0,2.1 -1.7,3.9 -3.9,3.9l-104.4,0c-2.1,0 -3.9,-1.7 -3.9,-3.9l0,-189.2c0,-5.8 -1.9,-10.7 -5.7,-14.9c-3.8,-4.2 -7.9,-7.2 -12.3,-9.1c-1.3,-0.6 -2.8,-1.1 -4.7,-1.4c-1.9,-0.3 -3.5,-0.5 -4.7,-0.5c-6.3,0 -11.9,2.4 -17,7.2c-5,4.8 -7.8,10.1 -8.5,15.9l0,1.4l0,1.4l0,634.9l0,1.9l0,2.9c1.3,5.1 4.1,9.8 8.5,13.9c4.4,4.2 10.1,6.3 17,6.3c6.9,0 13.2,-2.4 18.9,-7.2c5.7,-4.8 8.5,-10.7 8.5,-17.8l0,-248c0,-2.2 1.8,-3.9 3.9,-3.9" class="st2"/>
  <path id="svg_6" d="m984.2,820.5l0,-212.4c0,-0.2 0,-0.4 -0.1,-0.7l-103.8,-601.9c-0.4,-2.4 1.4,-4.5 3.8,-4.5l117.3,0c2,0 3.7,1.5 3.9,3.5l31.6,304.4c0.5,4.6 7.2,4.6 7.7,0l31.6,-304.4c0.2,-2 1.9,-3.5 3.9,-3.5l117.3,0c2.4,0 4.2,2.2 3.8,4.5l-103.8,601.9c0,0.2 -0.1,0.4 -0.1,0.6l-0.9,212.4c0,2.1 -1.7,3.9 -3.9,3.9l-104.4,0c-2.1,0.1 -3.9,-1.7 -3.9,-3.8" class="st2"/>
 </g>
</svg>
